<svg width="18" height="20" viewBox="0 0 18 20" fill="none" xmlns="http://www.w3.org/2000/svg">
<path d="M17.2547 9.98202C17.2547 9.71236 17.1903 9.45932 17.0826 9.22933C16.3637 6.91017 12.998 7.07958 8.21067 6.96646C7.41027 6.9477 7.8681 6.00256 8.14902 3.92785C8.33183 2.57849 7.46174 0.50647 5.99926 0.50647C3.58789 0.50647 5.90759 2.40855 3.77552 7.11228C2.63631 9.62551 0.0898438 8.21772 0.0898438 10.7422V16.4887C0.0898438 17.4713 0.186342 18.4159 1.5684 18.5714C2.90812 18.722 2.60683 19.6768 4.53946 19.6768H14.2128C15.1982 19.6768 15.9997 18.8748 15.9997 17.8895C15.9997 17.481 15.8565 17.1089 15.6255 16.8076C16.1723 16.5015 16.5475 15.9236 16.5475 15.2535C16.5475 14.846 16.4049 14.474 16.1744 14.1732C16.7228 13.8677 17.0992 13.2892 17.0992 12.618C17.0992 12.1307 16.9019 11.689 16.584 11.3657C16.9898 11.0381 17.2547 10.5428 17.2547 9.98202Z" fill="#FFDB5E"/>
</svg>
