<svg width="20" height="18" viewBox="0 0 20 18" fill="none" xmlns="http://www.w3.org/2000/svg">
<path d="M19.1666 14.8333C19.1666 15.2754 18.991 15.6993 18.6785 16.0118C18.3659 16.3244 17.942 16.5 17.5 16.5H2.49998C2.05795 16.5 1.63403 16.3244 1.32147 16.0118C1.00891 15.6993 0.833313 15.2754 0.833313 14.8333V5.66667C0.833313 5.22464 1.00891 4.80072 1.32147 4.48816C1.63403 4.17559 2.05795 4 2.49998 4H5.83331L7.49998 1.5H12.5L14.1666 4H17.5C17.942 4 18.3659 4.17559 18.6785 4.48816C18.991 4.80072 19.1666 5.22464 19.1666 5.66667V14.8333Z" stroke="black" stroke-width="1.5" stroke-linecap="round" stroke-linejoin="round"/>
<path d="M10 13.1667C11.841 13.1667 13.3334 11.6743 13.3334 9.83333C13.3334 7.99238 11.841 6.5 10 6.5C8.15907 6.5 6.66669 7.99238 6.66669 9.83333C6.66669 11.6743 8.15907 13.1667 10 13.1667Z" stroke="black" stroke-width="1.5" stroke-linecap="round" stroke-linejoin="round"/>
</svg>
