<svg width="18" height="19" viewBox="0 0 18 19" fill="none" xmlns="http://www.w3.org/2000/svg">
<path d="M8.83387 18.118C13.7092 18.118 17.6615 14.1657 17.6615 9.29035C17.6615 4.41498 13.7092 0.462708 8.83387 0.462708C3.95849 0.462708 0.00622559 4.41498 0.00622559 9.29035C0.00622559 14.1657 3.95849 18.118 8.83387 18.118Z" fill="#FFCC4D"/>
<path d="M8.83351 10.7615C7.0567 10.7615 5.87772 10.5546 4.41969 10.2711C4.08669 10.2069 3.43884 10.2711 3.43884 11.252C3.43884 13.2137 5.69234 15.6658 8.83351 15.6658C11.9742 15.6658 14.2282 13.2137 14.2282 11.252C14.2282 10.2711 13.5803 10.2064 13.2473 10.2711C11.7893 10.5546 10.6103 10.7615 8.83351 10.7615Z" fill="#664500"/>
<path d="M4.42004 11.252C4.42004 11.252 5.89132 11.7424 8.83386 11.7424C11.7764 11.7424 13.2477 11.252 13.2477 11.252C13.2477 11.252 12.2668 13.2137 8.83386 13.2137C5.40089 13.2137 4.42004 11.252 4.42004 11.252Z" fill="white"/>
<path d="M11.7762 8.8001C12.4534 8.8001 13.0023 8.0316 13.0023 7.08361C13.0023 6.13562 12.4534 5.36713 11.7762 5.36713C11.0991 5.36713 10.5502 6.13562 10.5502 7.08361C10.5502 8.0316 11.0991 8.8001 11.7762 8.8001Z" fill="#664500"/>
<path d="M5.89061 8.8001C6.56775 8.8001 7.11667 8.0316 7.11667 7.08361C7.11667 6.13562 6.56775 5.36713 5.89061 5.36713C5.21348 5.36713 4.66455 6.13562 4.66455 7.08361C4.66455 8.0316 5.21348 8.8001 5.89061 8.8001Z" fill="#664500"/>
</svg>
