<svg width="19" height="19" viewBox="0 0 19 19" fill="none" xmlns="http://www.w3.org/2000/svg">
<path d="M18.2764 9.4643C18.2764 14.3396 14.3241 18.2919 9.44876 18.2919C4.57395 18.2919 0.621124 14.3396 0.621124 9.4643C0.621124 4.58948 4.57395 0.636658 9.44876 0.636658C14.3241 0.636658 18.2764 4.58948 18.2764 9.4643Z" fill="#FFCC4D"/>
<path d="M14.5768 9.36492C14.5474 9.29871 13.8416 7.74799 12.391 7.74799C10.9408 7.74799 10.2346 9.29871 10.2052 9.36492C10.16 9.46643 10.1895 9.58512 10.2763 9.65476C10.3621 9.7244 10.4852 9.72685 10.5754 9.66162C10.5813 9.65721 11.1943 9.21926 12.391 9.21926C13.5807 9.21926 14.1928 9.65132 14.2065 9.66113C14.2497 9.6935 14.3017 9.70968 14.3527 9.70968C14.4066 9.70968 14.4611 9.69154 14.5057 9.65623C14.5925 9.58659 14.6224 9.46692 14.5768 9.36492ZM8.6917 9.36492C8.66228 9.29871 7.95655 7.74799 6.50588 7.74799C5.05569 7.74799 4.34948 9.29871 4.32006 9.36492C4.27494 9.46643 4.30436 9.58512 4.39068 9.65476C4.47699 9.7244 4.60009 9.72685 4.68984 9.66162C4.69621 9.65721 5.30875 9.21926 6.50588 9.21926C7.69565 9.21926 8.3077 9.65132 8.32143 9.66113C8.36459 9.6935 8.41657 9.70968 8.46758 9.70968C8.52152 9.70968 8.57596 9.69154 8.62059 9.65623C8.70788 9.58659 8.73682 9.46692 8.6917 9.36492ZM9.44843 11.4262C7.67162 11.4262 6.49264 11.2192 5.03461 10.9357C4.70161 10.8715 4.05376 10.9357 4.05376 11.9166C4.05376 13.8783 6.30726 16.3304 9.44843 16.3304C12.5891 16.3304 14.8431 13.8783 14.8431 11.9166C14.8431 10.9357 14.1952 10.871 13.8622 10.9357C12.4042 11.2192 11.2252 11.4262 9.44843 11.4262Z" fill="#664500"/>
<path d="M5.03494 11.9165C5.03494 11.9165 6.50622 12.4069 9.44876 12.4069C12.3913 12.4069 13.8626 11.9165 13.8626 11.9165C13.8626 11.9165 12.8817 13.8782 9.44876 13.8782C6.01579 13.8782 5.03494 11.9165 5.03494 11.9165Z" fill="#B3B9C9"/>
<path d="M17.7856 6.0315C17.7856 7.38605 16.6881 8.48362 15.3335 8.48362C13.9789 8.48362 12.8814 7.38605 12.8814 6.0315C12.8814 4.67695 14.8431 1.12726 15.3335 1.12726C15.8239 1.12726 17.7856 4.67695 17.7856 6.0315Z" fill="#5DADEC"/>
</svg>
